<svg width="220" height="220" viewBox="0 0 220 220" fill="none" xmlns="http://www.w3.org/2000/svg">
<rect width="220" height="220" fill="#1E1E1E"/>
<rect width="220" height="220" fill="#F8F8F8"/>
<path d="M91.2091 87.768C88.3291 87.768 85.4171 87.48 82.4731 86.904C79.5291 86.328 76.8731 85.528 74.5051 84.504L77.2891 72.408C78.7611 73.176 80.7771 73.848 83.3371 74.424C85.8971 74.936 88.1691 75.192 90.1531 75.192C93.3531 75.192 94.9531 74.328 94.9531 72.6C94.9531 71.768 94.4411 71.16 93.4171 70.776C92.4571 70.392 91.1771 70.072 89.5771 69.816C88.0411 69.496 86.3771 69.112 84.5851 68.664C82.7931 68.152 81.0971 67.416 79.4971 66.456C77.9611 65.432 76.6811 63.992 75.6571 62.136C74.6971 60.28 74.2171 57.848 74.2171 54.84C74.2171 49.784 76.2011 45.752 80.1691 42.744C84.2011 39.736 89.7051 38.232 96.6811 38.232C99.3691 38.232 101.865 38.424 104.169 38.808C106.537 39.192 108.777 39.992 110.889 41.208L108.873 52.92C105.481 51.512 101.929 50.808 98.2171 50.808C95.8491 50.808 94.1211 51 93.0331 51.384C92.0091 51.768 91.4971 52.408 91.4971 53.304C91.4971 54.008 92.0091 54.552 93.0331 54.936C94.0571 55.32 95.3691 55.704 96.9691 56.088C98.6331 56.408 100.361 56.888 102.153 57.528C103.945 58.104 105.641 58.936 107.241 60.024C108.905 61.112 110.249 62.584 111.273 64.44C112.297 66.232 112.809 68.568 112.809 71.448C112.809 76.568 110.921 80.568 107.145 83.448C103.369 86.328 98.0571 87.768 91.2091 87.768ZM137.294 87.768C133.006 87.768 129.518 87 126.83 85.464C124.206 83.928 122.286 81.848 121.07 79.224C119.854 76.6 119.246 73.656 119.246 70.392V38.904H139.502V67.608C139.502 69.08 139.918 70.232 140.75 71.064C141.646 71.832 142.702 72.216 143.918 72.216C145.198 72.216 146.51 71.832 147.854 71.064L148.91 84.408C147.502 85.496 145.678 86.328 143.438 86.904C141.198 87.48 139.15 87.768 137.294 87.768ZM129.422 33.624C126.478 33.624 123.95 32.696 121.838 30.84C119.726 28.92 118.67 26.584 118.67 23.832C118.67 21.912 119.182 20.248 120.206 18.84C121.23 17.368 122.574 16.216 124.238 15.384C125.902 14.552 127.63 14.136 129.422 14.136C131.406 14.136 133.198 14.584 134.798 15.48C136.462 16.376 137.774 17.56 138.734 19.032C139.758 20.504 140.27 22.104 140.27 23.832C140.27 25.752 139.726 27.448 138.638 28.92C137.614 30.392 136.27 31.544 134.606 32.376C133.006 33.208 131.278 33.624 129.422 33.624Z" fill="#22B7C1"/>
<path d="M41.798 168.72C39.366 168.72 37.094 168.56 34.982 168.24C32.87 167.92 31.206 167.536 29.99 167.088L31.526 153.168C32.678 153.424 33.926 153.616 35.27 153.744C36.614 153.936 37.926 154.032 39.206 154.032C43.494 154.032 46.566 153.136 48.422 151.344C50.342 149.552 51.302 146.8 51.302 143.088V137.616C49.766 141.52 47.59 144.368 44.774 146.16C41.958 147.888 38.63 148.752 34.79 148.752C28.838 148.752 24.23 146.608 20.966 142.32C17.702 137.968 16.07 131.856 16.07 123.984V101.904H36.326V125.04C36.326 130.736 38.342 133.584 42.374 133.584C44.87 133.584 46.854 132.56 48.326 130.512C49.862 128.464 50.63 125.776 50.63 122.448V101.904H70.886V138.768C70.886 149.008 68.358 156.56 63.302 161.424C58.246 166.288 51.078 168.72 41.798 168.72ZM101.704 150.768C97.2875 150.768 93.2875 149.712 89.7035 147.6C86.1195 145.424 83.2715 142.448 81.1595 138.672C79.1115 134.896 78.0875 130.576 78.0875 125.712C78.0875 120.848 79.1115 116.592 81.1595 112.944C83.2715 109.296 86.1195 106.448 89.7035 104.4C93.2875 102.288 97.2875 101.232 101.704 101.232C104.84 101.232 107.88 102.096 110.824 103.824C113.768 105.552 116.04 108.4 117.64 112.368V101.904H137.608V150H117.448V141.072C115.912 144.208 113.864 146.608 111.304 148.272C108.744 149.936 105.544 150.768 101.704 150.768ZM107.944 135.6C110.568 135.6 112.808 134.672 114.664 132.816C116.52 130.896 117.448 128.56 117.448 125.808C117.448 123.056 116.52 120.816 114.664 119.088C112.808 117.296 110.568 116.4 107.944 116.4C105.192 116.4 102.888 117.328 101.031 119.184C99.1755 121.04 98.2475 123.312 98.2475 126C98.2475 128.688 99.1755 130.96 101.031 132.816C102.888 134.672 105.192 135.6 107.944 135.6ZM147.238 150V101.904H167.206V112.368C168.678 108.784 170.854 106.032 173.734 104.112C176.678 102.192 180.166 101.232 184.198 101.232C190.47 101.232 195.334 103.408 198.79 107.76C202.246 112.048 203.974 118.128 203.974 126V150H183.718V124.944C183.718 119.248 181.414 116.4 176.806 116.4C174.054 116.4 171.814 117.424 170.086 119.472C168.358 121.456 167.494 124.144 167.494 127.536V150H147.238ZM85.844 213.768C81.3 213.768 77.588 213 74.708 211.464C71.892 209.928 69.844 207.848 68.564 205.224C67.284 202.6 66.644 199.656 66.644 196.392V176.808H60.5V164.904H68.084L77.012 149.736H86.9V164.904H98.036V176.808H86.9V193.608C86.9 195.08 87.38 196.232 88.34 197.064C89.3 197.832 90.548 198.216 92.084 198.216C93.62 198.216 95.156 197.832 96.692 197.064L98.132 210.408C96.596 211.496 94.644 212.328 92.276 212.904C89.908 213.48 87.764 213.768 85.844 213.768ZM129.361 213.768C123.921 213.768 119.121 212.712 114.961 210.6C110.801 208.488 107.537 205.576 105.169 201.864C102.865 198.088 101.713 193.768 101.713 188.904C101.713 183.912 102.897 179.592 105.265 175.944C107.697 172.232 110.993 169.352 115.153 167.304C119.313 165.256 124.081 164.232 129.457 164.232C134.961 164.232 139.793 165.288 143.953 167.4C148.113 169.448 151.345 172.328 153.649 176.04C155.953 179.688 157.105 183.976 157.105 188.904C157.105 193.832 155.921 198.184 153.552 201.96C151.249 205.672 148.017 208.584 143.857 210.696C139.697 212.744 134.865 213.768 129.361 213.768ZM129.553 199.368C132.177 199.368 134.321 198.408 135.985 196.488C137.713 194.504 138.577 191.976 138.577 188.904C138.577 185.832 137.745 183.336 136.081 181.416C134.417 179.432 132.305 178.44 129.745 178.44C126.993 178.44 124.753 179.432 123.025 181.416C121.361 183.336 120.529 185.832 120.529 188.904C120.529 191.976 121.361 194.504 123.025 196.488C124.753 198.408 126.929 199.368 129.553 199.368Z" fill="black"/>
</svg>
