<svg width="512" height="122" viewBox="0 0 512 122" fill="none" xmlns="http://www.w3.org/2000/svg">
<rect width="512" height="122" fill="#1E1E1E"/>
<rect width="512" height="122" fill="#F8F8F8"/>
<path d="M89.1362 92.536C85.1042 92.536 81.0082 92.024 76.8482 91C72.6882 90.04 69.1682 88.728 66.2882 87.064L69.7442 71.416C73.4562 73.4 76.9122 74.712 80.1122 75.352C83.3762 75.928 86.3842 76.216 89.1362 76.216C91.6962 76.216 93.6162 75.8 94.8962 74.968C96.2402 74.136 96.9122 73.016 96.9122 71.608C96.9122 70.328 96.1762 69.336 94.7042 68.632C93.2322 67.864 91.3122 67.16 88.9442 66.52C86.6402 65.88 84.1762 65.144 81.5522 64.312C78.9282 63.416 76.4322 62.264 74.0642 60.856C71.7602 59.384 69.8722 57.464 68.4002 55.096C66.9282 52.664 66.1922 49.624 66.1922 45.976C66.1922 41.368 67.3122 37.4 69.5522 34.072C71.7922 30.68 74.9922 28.088 79.1522 26.296C83.3122 24.44 88.2082 23.512 93.8402 23.512C97.6162 23.512 101.296 24.024 104.88 25.048C108.528 26.008 111.44 27.32 113.616 28.984L110.352 43.096C107.088 41.752 104.144 40.792 101.52 40.216C98.9602 39.576 96.5282 39.256 94.2242 39.256C91.5362 39.256 89.4882 39.64 88.0802 40.408C86.6722 41.176 85.9682 42.2 85.9682 43.48C85.9682 44.696 86.7042 45.688 88.1762 46.456C89.6482 47.224 91.5362 47.96 93.8402 48.664C96.1442 49.368 98.6082 50.168 101.232 51.064C103.856 51.96 106.32 53.144 108.624 54.616C110.928 56.088 112.816 58.008 114.288 60.376C115.76 62.744 116.496 65.72 116.496 69.304C116.496 76.728 114.064 82.456 109.2 86.488C104.4 90.52 97.7122 92.536 89.1362 92.536ZM141.31 91.768C137.022 91.768 133.534 91 130.846 89.464C128.222 87.928 126.302 85.848 125.086 83.224C123.87 80.6 123.262 77.656 123.262 74.392V42.904H143.518V71.608C143.518 73.08 143.934 74.232 144.766 75.064C145.662 75.832 146.718 76.216 147.934 76.216C149.214 76.216 150.526 75.832 151.87 75.064L152.926 88.408C151.518 89.496 149.694 90.328 147.454 90.904C145.214 91.48 143.166 91.768 141.31 91.768ZM133.438 37.624C130.494 37.624 127.966 36.696 125.854 34.84C123.742 32.92 122.686 30.584 122.686 27.832C122.686 25.912 123.198 24.248 124.222 22.84C125.246 21.368 126.59 20.216 128.254 19.384C129.918 18.552 131.646 18.136 133.438 18.136C135.422 18.136 137.214 18.584 138.814 19.48C140.478 20.376 141.79 21.56 142.75 23.032C143.774 24.504 144.286 26.104 144.286 27.832C144.286 29.752 143.742 31.448 142.654 32.92C141.63 34.392 140.286 35.544 138.622 36.376C137.022 37.208 135.294 37.624 133.438 37.624Z" fill="#13D2D9"/>
<path d="M183.695 109.72C181.263 109.72 178.991 109.56 176.879 109.24C174.767 108.92 173.103 108.536 171.887 108.088L173.423 94.168C174.575 94.424 175.823 94.616 177.167 94.744C178.511 94.936 179.823 95.032 181.103 95.032C185.391 95.032 188.463 94.136 190.319 92.344C192.239 90.552 193.199 87.8 193.199 84.088V78.616C191.663 82.52 189.487 85.368 186.671 87.16C183.855 88.888 180.527 89.752 176.687 89.752C170.735 89.752 166.127 87.608 162.863 83.32C159.599 78.968 157.967 72.856 157.967 64.984V42.904H178.223V66.04C178.223 71.736 180.239 74.584 184.271 74.584C186.767 74.584 188.751 73.56 190.223 71.512C191.759 69.464 192.527 66.776 192.527 63.448V42.904H212.783V79.768C212.783 90.008 210.255 97.56 205.199 102.424C200.143 107.288 192.975 109.72 183.695 109.72ZM244.561 91.768C240.145 91.768 236.145 90.712 232.561 88.6C228.977 86.424 226.129 83.448 224.017 79.672C221.969 75.896 220.945 71.576 220.945 66.712C220.945 61.848 221.969 57.592 224.017 53.944C226.129 50.296 228.977 47.448 232.561 45.4C236.145 43.288 240.145 42.232 244.561 42.232C247.697 42.232 250.737 43.096 253.681 44.824C256.625 46.552 258.897 49.4 260.497 53.368V42.904H280.465V91H260.305V82.072C258.769 85.208 256.721 87.608 254.161 89.272C251.601 90.936 248.401 91.768 244.561 91.768ZM250.801 76.6C253.425 76.6 255.665 75.672 257.521 73.816C259.377 71.896 260.305 69.56 260.305 66.808C260.305 64.056 259.377 61.816 257.521 60.088C255.665 58.296 253.425 57.4 250.801 57.4C248.049 57.4 245.745 58.328 243.889 60.184C242.033 62.04 241.105 64.312 241.105 67C241.105 69.688 242.033 71.96 243.889 73.816C245.745 75.672 248.049 76.6 250.801 76.6ZM289.135 91V42.904H309.103V53.368C310.575 49.784 312.751 47.032 315.631 45.112C318.575 43.192 322.063 42.232 326.095 42.232C332.367 42.232 337.231 44.408 340.687 48.76C344.143 53.048 345.871 59.128 345.871 67V91H325.615V65.944C325.615 60.248 323.311 57.4 318.703 57.4C315.951 57.4 313.711 58.424 311.983 60.472C310.255 62.456 309.391 65.144 309.391 68.536V91H289.135ZM373.688 91.768C369.144 91.768 365.432 91 362.552 89.464C359.736 87.928 357.688 85.848 356.408 83.224C355.128 80.6 354.488 77.656 354.488 74.392V54.808H348.344V42.904H355.928L364.856 27.736H374.744V42.904H385.88V54.808H374.744V71.608C374.744 73.08 375.224 74.232 376.184 75.064C377.144 75.832 378.392 76.216 379.928 76.216C381.464 76.216 383 75.832 384.536 75.064L385.976 88.408C384.44 89.496 382.488 90.328 380.12 90.904C377.752 91.48 375.608 91.768 373.688 91.768ZM418.164 91.768C412.724 91.768 407.924 90.712 403.764 88.6C399.604 86.488 396.34 83.576 393.972 79.864C391.668 76.088 390.516 71.768 390.516 66.904C390.516 61.912 391.7 57.592 394.068 53.944C396.5 50.232 399.796 47.352 403.956 45.304C408.116 43.256 412.884 42.232 418.26 42.232C423.764 42.232 428.596 43.288 432.756 45.4C436.916 47.448 440.148 50.328 442.452 54.04C444.756 57.688 445.908 61.976 445.908 66.904C445.908 71.832 444.724 76.184 442.356 79.96C440.052 83.672 436.82 86.584 432.66 88.696C428.5 90.744 423.668 91.768 418.164 91.768ZM418.356 77.368C420.98 77.368 423.124 76.408 424.788 74.488C426.516 72.504 427.38 69.976 427.38 66.904C427.38 63.832 426.548 61.336 424.884 59.416C423.22 57.432 421.108 56.44 418.548 56.44C415.796 56.44 413.556 57.432 411.828 59.416C410.164 61.336 409.332 63.832 409.332 66.904C409.332 69.976 410.164 72.504 411.828 74.488C413.556 76.408 415.732 77.368 418.356 77.368Z" fill="black"/>
</svg>
